<svg version="1.1" xmlns="http://www.w3.org/2000/svg" xmlns:xlink="http://www.w3.org/1999/xlink" x="0px" y="0px"
	viewBox="0 0 512 512" style="enable-background:new 0 0 512 512;" xml:space="preserve"
>
	<g fill="#000000">
		<path d="M260.3,484.7c0-3.4-1.7-4.3-4.3-4.3c-11.1,0-20.5-4.3-29-11.9c-7.7-7.7-11.9-17.9-11.9-29
			c0-3.4-1.7-4.3-4.3-4.3c-2.6,0-4.3,1.7-4.3,4.3c0,13.7,5.1,25.6,14.5,35.8c9.4,9.4,21.3,14.5,35.8,14.5
			C259.4,489,260.3,487.3,260.3,484.7z M494.1,401.9c0,10.2-3.4,18.8-11.1,25.6c-6.8,6.8-16.2,11.1-25.6,11.1h-128
			c0,20.5-6.8,37.5-21.3,52.1C293.5,505.2,276.5,512,256,512s-37.5-6.8-52.1-21.3c-14.5-14.5-21.3-31.6-21.3-52.1h-128
			c-10.2,0-18.8-3.4-25.6-11.1s-11.1-16.2-11.1-25.6c9.4-7.7,17.9-16.2,25.6-24.7s16.2-20.5,23.9-34.1c8.5-13.7,15.4-29,21.3-45.2
			c6-16.2,10.2-35.8,14.5-58.9c3.4-23,6-47.8,6-74.2c0-29,11.1-55.5,33.3-81.1c22.2-24.7,51.2-40.1,87.9-45.2
			c-1.7-3.4-2.6-7.7-2.6-11.1c0-7.7,2.6-14.5,7.7-19.6c5.1-5.1,11.9-7.7,19.6-7.7c7.7,0,14.5,2.6,19.6,7.7c5.1,5.1,7.7,11.9,7.7,19.6
			c0,3.4-0.9,7.7-2.6,11.1c35.8,5.1,65.7,20.5,87.9,45.2c22.2,24.7,33.3,52.1,33.3,81.1c0,26.5,1.7,51.2,6,74.2
			c3.4,23,8.5,42.7,14.5,58.9s12.8,31.6,21.3,45.2c8.5,13.7,16.2,25.6,23.9,34.1C475.3,385.7,483.8,394.2,494.1,401.9z"
		/>
	</g>
</svg>