<?xml version="1.0" encoding="UTF-8"?>
<svg width="9px" height="11px" viewBox="0 0 9 11" version="1.1" xmlns="http://www.w3.org/2000/svg" xmlns:xlink="http://www.w3.org/1999/xlink">
    <!-- Generator: Sketch 57.1 (83088) - https://sketch.com -->
    <title>Group 12</title>
    <desc>Created with Sketch.</desc>
    <defs>
        <polygon id="path-1" points="0 11 8.8 11 8.8 0 0 0"></polygon>
    </defs>
    <g id="Symbols" stroke="none" stroke-width="1" fill="none" fill-rule="evenodd">
        <g id="Excluir-ícone">
            <g id="Group-12">
                <path d="M1.46667462,3.66365633 L1.46667462,9.97086169 C1.46667462,10.1356379 1.60126769,10.269677 1.76664533,10.269677 L7.03335467,10.269677 C7.19881186,10.269677 7.33332538,10.1356379 7.33332538,9.97086169 L7.33332538,3.66365633 L1.46667462,3.66365633 Z M7.03335467,11 L1.76664533,11 C1.19685212,11 0.733333333,10.5383097 0.733333333,9.97086169 L0.733333333,2.93333333 L8.06666667,2.93333333 L8.06666667,9.97086169 C8.06666667,10.5383097 7.60322743,11 7.03335467,11 L7.03335467,11 Z" id="Fill-1" fill="#84848C"></path>
                <path d="M2.93333333,9.33072084 C2.93333333,9.44226248 2.84336696,9.53333333 2.73327548,9.53333333 L2.39997831,9.53333333 C2.28996637,9.53333333 2.2,9.44226248 2.2,9.33072084 L2.2,4.60261249 C2.2,4.49115144 2.28996637,4.4 2.39997831,4.4 L2.73327548,4.4 C2.84336696,4.4 2.93333333,4.49115144 2.93333333,4.60261249 L2.93333333,9.33072084 Z" id="Fill-3" fill="#84848C"></path>
                <path d="M4.4,9.33072084 C4.4,9.44226248 4.31003363,9.53333333 4.19994215,9.53333333 L3.86664497,9.53333333 C3.75663304,9.53333333 3.66666667,9.44226248 3.66666667,9.33072084 L3.66666667,4.60261249 C3.66666667,4.49115144 3.75663304,4.4 3.86664497,4.4 L4.19994215,4.4 C4.31003363,4.4 4.4,4.49115144 4.4,4.60261249 L4.4,9.33072084 Z" id="Fill-5" fill="#84848C"></path>
                <path d="M6.6,9.33072084 C6.6,9.44226248 6.51003363,9.53333333 6.40002169,9.53333333 L6.06664497,9.53333333 C5.95663304,9.53333333 5.86666667,9.44226248 5.86666667,9.33072084 L5.86666667,4.60261249 C5.86666667,4.49115144 5.95663304,4.4 6.06664497,4.4 L6.40002169,4.4 C6.51003363,4.4 6.6,4.49115144 6.6,4.60261249 L6.6,9.33072084 Z" id="Fill-7" fill="#84848C"></path>
                <mask id="mask-2" fill="white">
                    <use xlink:href="#path-1"></use>
                </mask>
                <g id="Clip-10"></g>
                <path d="M0.771325074,2.97523381 L8.02875859,2.97523381 L8.02875859,2.15809952 L0.771325074,2.15809952 L0.771325074,2.97523381 Z M8.8,3.66666667 L0,3.66666667 L0,2.12667417 C0,1.76269503 0.317599521,1.46666667 0.708072904,1.46666667 L8.0919271,1.46666667 C8.48231681,1.46666667 8.8,1.76269503 8.8,2.12667417 L8.8,3.66666667 Z" id="Fill-9" fill="#84848C" mask="url(#mask-2)"></path>
                <path d="M5.86666667,1.24941472 C5.86666667,1.36892922 5.78199081,1.46666667 5.67844819,1.46666667 L5.36467586,1.46666667 C5.26113323,1.46666667 5.17645738,1.36892922 5.17645738,1.24941472 L5.17645738,1.01401524 C5.17645738,0.894500746 5.09178152,0.796763296 4.98831377,0.796763296 L3.8117611,0.796763296 C3.70821848,0.796763296 3.62354262,0.894500746 3.62354262,1.01401524 L3.62354262,1.24941472 C3.62354262,1.36892922 3.53886677,1.46666667 3.43532414,1.46666667 L3.12155181,1.46666667 C3.01800919,1.46666667 2.93333333,1.36892922 2.93333333,1.24941472 L2.93333333,0.217424778 C2.93333333,0.0978238668 3.01800919,0 3.12155181,0 L5.67844819,0 C5.78199081,0 5.86666667,0.0978238668 5.86666667,0.217424778 L5.86666667,1.24941472 Z" id="Fill-11" fill="#84848C" mask="url(#mask-2)"></path>
            </g>
        </g>
    </g>
</svg>